<svg aria-hidden="true" style="position: absolute; width: 0; height: 0; overflow: hidden;" version="1.1" xmlns="http://www.w3.org/2000/svg" xmlns:xlink="http://www.w3.org/1999/xlink">
<defs>
<symbol id="icon-football" viewBox="0 0 33 32">
<path d="M22.303 26.393c-8.369 4.832-17.84 4.097-21.154-1.643s0.785-14.311 9.155-19.143 17.84-4.098 21.155 1.643c3.314 5.739-0.785 14.31-9.156 19.143zM2.51 17.232c-0.783 2.356-0.731 4.662 0.365 6.562 1.097 1.899 3.067 3.097 5.5 3.596l-5.865-10.158zM20.459 4.471c-2.9 0.19-6.099 1.146-9.161 2.913-3.115 1.8-5.577 4.142-7.191 6.606l7.875 13.64c2.941-0.166 6.2-1.126 9.317-2.925 3.061-1.768 5.488-4.061 7.104-6.478l-7.944-13.756zM30.057 14.943c0.814-2.387 0.775-4.726-0.334-6.649-1.111-1.924-3.117-3.126-5.592-3.614l5.926 10.263zM17.205 18.811l-0.811 0.469-0.97-1.678-0.004 0.002-0.916 0.529 0.969 1.678-0.812 0.469-0.969-1.678-0.004 0.002-0.916 0.529 0.969 1.678-0.812 0.469-0.969-1.679-0.004 0.003-1.732 1-0.5-0.866 1.736-1.003-1.012-1.753 0.812-0.469 1.013 1.753 0.92-0.531-1.013-1.755 0.812-0.468 1.013 1.753 0.92-0.531-1.012-1.754 0.812-0.468 1.013 1.753 0.92-0.531-1.012-1.754 0.812-0.468 1.012 1.753 0.92-0.531-1.012-1.753 0.811-0.469 1.014 1.753 0.92-0.531-1.014-1.754 0.812-0.468 1.012 1.753 1.809-1.043 0.5 0.866-1.809 1.044 0.969 1.678-0.811 0.469-0.969-1.678-0.92 0.531 0.969 1.678-0.812 0.469-0.969-1.678-0.004 0.002-0.916 0.529 0.969 1.678-0.812 0.469-0.969-1.678-0.004 0.002-0.916 0.529 0.967 1.679z"></path>
</symbol>
<symbol id="icon-boxing-glove" viewBox="0 0 32 32">
<path d="M8 16c0.008 3.511 3.084 3.881 3.836 6h13.164v-10.006c0-3.31-2.694-5.994-6.005-5.994h-0.989c-3.317 0-6.005 2.686-6.005 5.997v0.584c0.483 0.241 0.849 0.419 0.885 0.432 1.545 0.561 3.268 0.996 4.653 0.996 0.915 0 1.864-0.188 2.787-0.501 0.325-0.11 0.623-0.228 0.886-0.346 0.156-0.069 0.264-0.122 0.316-0.15l0.468 0.884c-0.072 0.038-0.2 0.101-0.377 0.18-0.291 0.13-0.617 0.259-0.972 0.379-1.020 0.346-2.072 0.554-3.109 0.554-1.533 0-3.347-0.458-4.995-1.057-0.095-0.034-0.418-0.192-1.005-0.484-0.227-0.113-0.45-0.225-0.671-0.336-1.189 0.238-2.872 0.922-2.868 2.867v0zM12 23h13v2c0 1.112-0.897 2-2.003 2h-8.994c-1.109 0-2.003-0.895-2.003-2v-2zM14 24v1h4v-1h-4z"></path>
</symbol>
<symbol id="icon-baseball-set" viewBox="0 0 32 32">
<path d="M27.782 24.266c-0.221-2.106-1.894-3.779-4-4v0c0.016 0.156 0.025 0.315 0.025 0.475 0 2.485-2.015 4.5-4.5 4.5-0.16 0-0.319-0.008-0.475-0.025 0.221 2.106 1.894 3.779 4 4-0.016-0.156-0.025-0.315-0.025-0.475 0-2.485 2.015-4.5 4.5-4.5 0.16 0 0.319 0.008 0.475 0.025v0zM27.776 25.272c-0.242 2.061-1.877 3.696-3.938 3.938-0.021-0.153-0.031-0.31-0.031-0.469 0-1.933 1.567-3.5 3.5-3.5 0.159 0 0.316 0.011 0.469 0.031v0zM22.775 20.272c-2.061 0.242-3.696 1.877-3.938 3.938 0.153 0.021 0.31 0.031 0.469 0.031 1.933 0 3.5-1.567 3.5-3.5 0-0.159-0.011-0.316-0.031-0.469v0zM13.117 15.88l-7.39 8.375 2.285 2.285 8.375-7.39-3.27-3.27zM13.78 15.128l9.762-11.064c1.204-1.364 3.207-1.423 4.486-0.144l0.319 0.319c1.278 1.278 1.214 3.287-0.144 4.486l-11.064 9.762-3.359-3.359zM7.328 27.269c0.185 0.527 0.068 1.138-0.354 1.559-0.59 0.59-1.536 0.586-2.121-0l-1.414-1.414c-0.584-0.584-0.586-1.536-0-2.121 0.424-0.424 1.031-0.541 1.557-0.356l2.332 2.332z"></path>
</symbol>
<symbol id="icon-basketball-hoop" viewBox="0 0 32 32">
<path d="M12.774 20.341v0c0.378 0.186 0.878 0.342 1.462 0.455l-0.193-1.059c-0.633-0.144-1.196-0.342-1.661-0.58l0.391 1.184zM13.151 21.483l0.378 1.143c0.323 0.095 0.687 0.174 1.082 0.235l-0.19-1.047c-0.457-0.085-0.884-0.197-1.27-0.332v0zM16 20.991v-1.001c-0.317-0.013-0.626-0.038-0.924-0.074v0l0.187 1.027c0.238 0.023 0.485 0.039 0.738 0.048v0zM16 21.99v0c-0.187-0.008-0.372-0.020-0.554-0.036l0.185 1.018c0.121 0.008 0.244 0.014 0.369 0.019v-1.001zM17 21.99v1.001c0.125-0.005 0.247-0.011 0.369-0.019l0.185-1.018c-0.182 0.016-0.366 0.028-0.554 0.036v0zM17 20.991v0c0.253-0.009 0.499-0.026 0.738-0.048l0.187-1.027c-0.299 0.036-0.608 0.061-0.924 0.074v1.001zM19.845 21.485v0c-0.385 0.134-0.81 0.246-1.266 0.331l-0.19 1.047c0.393-0.061 0.755-0.14 1.077-0.234l0.379-1.143zM20.224 20.343l0.393-1.184c-0.464 0.238-1.027 0.435-1.659 0.579l-0.193 1.059c0.582-0.113 1.081-0.269 1.459-0.454v0zM14.961 24.788l-0.166-0.911c-0.318-0.047-0.623-0.107-0.912-0.178l0.111 0.336h0.007c0.027 0.306 0.397 0.576 0.96 0.752zM15.996 24.98c0.001 0 0.002 0 0.004 0v0-0.99c-0.062-0.003-0.124-0.006-0.185-0.009l0.182 0.999zM17 23.99v0.99c0.001-0 0.002-0 0.004-0v0l0.182-0.999c-0.061 0.003-0.123 0.006-0.185 0.009v0 0zM19.11 23.701v0 0c-0.288 0.071-0.591 0.13-0.906 0.177l-0.166 0.911c0.563-0.176 0.933-0.447 0.96-0.752h0.001l0.111-0.335zM11.144 18.071v0c-0.012-0.024-0.023-0.047-0.034-0.071h-2.11v-9h15v9h-2.11c-0.010 0.022-0.021 0.045-0.032 0.067l-0.588 1.933h4.73v-13h-19v13h4.734l-0.59-1.929zM11.11 17v0 0c0.51-1.141 2.729-2 5.39-2s4.88 0.859 5.39 2h1.11v-7h-13v7h1.11zM13.015 24.185l-0.974-3.185h-6.040v-15h21v15h-6.034l-0.982 3.228h-0.007c-0.198 0.997-1.68 1.772-3.477 1.772-1.824 0-3.322-0.797-3.485-1.815v0 0zM16.5 19c2.485 0 4.5-0.672 4.5-1.5s-2.015-1.5-4.5-1.5c-2.485 0-4.5 0.672-4.5 1.5s2.015 1.5 4.5 1.5v0z"></path>
</symbol>
<symbol id="icon-hockey-stick" viewBox="0 0 32 32">
<path d="M11.5 21c0.828 0 1.5-0.672 1.5-1.5s-0.672-1.5-1.5-1.5c-0.828 0-1.5 0.672-1.5 1.5s0.672 1.5 1.5 1.5v0 0zM16.443 25.105c-0.24 0.483-0.89 0.893-1.44 0.893h-6.006c-0.544 0-0.997-0.447-0.997-0.999v-1.002c0-0.556 0.444-0.999 0.991-0.999h5.009l7.723-15.399c0.269-0.537 0.93-0.753 1.474-0.479l0.759 0.382c0.547 0.275 0.764 0.941 0.492 1.49l-8.004 16.114zM21.215 10.842l0.955 0.486 1.383-2.783c0.029-0.058 0.007-0.125-0.046-0.152l-0.759-0.382c-0.052-0.026-0.11-0.007-0.131 0.034l-1.402 2.796zM20.766 11.736l-6.149 12.261h-0.617c0 0-5-0.005-5-0.001 0 0 0.002 1.001-0.003 1.001h6.006c0.166 0 0.472-0.19 0.545-0.337l6.177-12.435-0.958-0.488z"></path>
</symbol>
<symbol id="icon-sports_tennis" viewBox="0 0 24 24">
<path d="M18 15q1.641 0 2.813 1.172t1.172 2.813-1.172 2.836-2.813 1.195-2.813-1.172-1.172-2.859q0-1.641 1.172-2.813t2.813-1.172zM18 17.016q-0.844 0-1.406 0.563-0.609 0.609-0.609 1.406t0.609 1.406 1.406 0.609q0.844 0 1.406-0.563 0.609-0.609 0.609-1.43t-0.609-1.43q-0.563-0.563-1.406-0.563zM10.313 11.672q1.172 1.172 3.164 0.867t3.586-1.898 1.898-3.586-0.867-3.164-3.141-0.844-3.563 1.922-1.922 3.563 0.844 3.141zM19.5 2.484q1.734 1.781 1.453 4.57t-2.484 4.992q-1.172 1.172-2.695 1.852t-2.789 0.68h-1.523t-0.797 0.023-0.867 0.117-0.773 0.234-0.82 0.398-0.703 0.586l-4.219 4.219-1.453-1.406 4.266-4.219q0.328-0.328 0.586-0.703t0.398-0.82 0.234-0.797 0.117-0.891 0.023-0.797v-1.523q0-1.219 0.68-2.742t1.852-2.695q2.203-2.203 4.992-2.531t4.523 1.453z"></path>
</symbol>
<symbol id="icon-home3" viewBox="0 0 32 32">
<path d="M32 19l-6-6v-9h-4v5l-6-6-16 16v1h4v10h10v-6h4v6h10v-10h4z"></path>
</symbol>
<symbol id="icon-sort-alpha-asc" viewBox="0 0 26 28">
<path d="M18.609 6.375h2.766l-1.125-3.406-0.187-0.734c-0.016-0.125-0.031-0.219-0.031-0.313h-0.063l-0.047 0.313c-0.047 0.187-0.063 0.422-0.172 0.734zM11.5 22.5c0 0.141-0.063 0.266-0.156 0.375l-4.984 4.984c-0.109 0.094-0.234 0.141-0.359 0.141s-0.25-0.047-0.359-0.141l-5-5c-0.141-0.156-0.187-0.359-0.109-0.547s0.266-0.313 0.469-0.313h3v-21.5c0-0.281 0.219-0.5 0.5-0.5h3c0.281 0 0.5 0.219 0.5 0.5v21.5h3c0.281 0 0.5 0.219 0.5 0.5zM24.563 24.359v3.641h-9.125v-1.406l5.766-8.266c0.125-0.187 0.25-0.344 0.328-0.422l0.172-0.141v-0.047c-0.063 0-0.125 0.016-0.219 0.016-0.125 0.031-0.281 0.047-0.469 0.047h-3.625v1.797h-1.875v-3.578h8.859v1.391l-5.766 8.281c-0.094 0.141-0.219 0.281-0.328 0.406l-0.172 0.172v0.031l0.219-0.031c0.141-0.031 0.281-0.031 0.469-0.031h3.875v-1.859h1.891zM25.953 10.344v1.656h-4.5v-1.656h1.172l-0.734-2.25h-3.797l-0.734 2.25h1.172v1.656h-4.484v-1.656h1.094l3.594-10.344h2.531l3.594 10.344h1.094z"></path>
</symbol>
</defs>
</svg>
